Patient4_TMGait_0pt4_01_left_02_GRF.mot
version=1
nRows=78
nColumns=19
inDegrees=no
endheader
time	F1x	F1y	F1z	M1x	M1y	M1z	F2x	F2y	F2z	M2x	M2y	M2z	EC1x	EC1y	EC1z	EC2x	EC2y	EC2z
1.39	-5.9612	-1.2722	-4.3903	-0.11333	0.79265	6.2848	-28.1896	791.0483	-73.7853	297.2495	91.5626	875.9815	-0.0592	0.0182	-0.0073	-0.0462	0.0165	0.9585
1.4034	-4.0362	-0.25491	-2.9481	-0.28935	0.4687	4.9578	-29.1796	783.3801	-70.6297	294.9184	88.5259	867.2181	-0.0592	0.0182	-0.0073	-0.0462	0.0165	0.9585
1.4169	-2.422	0.61964	-1.712	-0.44919	0.18706	3.8217	-29.2748	776.8447	-67.4784	293.0023	85.0455	858.6649	-0.0592	0.0182	-0.0073	-0.0462	0.0165	0.9585
1.4303	-1.2009	1.3092	-0.749	-0.58482	-0.043336	2.9586	-28.395	772.0715	-64.5232	291.7053	81.2966	851.0268	-0.0592	0.0182	-0.0073	-0.0462	0.0165	0.9585
1.4437	-0.3694	1.8209	-0.071038	-0.69684	-0.21075	2.3792	-26.6369	769.2858	-61.8931	291.0939	77.4709	844.7031	-0.0592	0.0182	-0.0073	-0.0462	0.0165	0.9585
1.4571	0.12308	2.1795	0.36641	-0.7859	-0.3301	2.0448	-24.166	768.3902	-59.647	291.1267	73.7221	839.7866	-0.0592	0.0182	-0.0073	-0.0462	0.0165	0.9585
1.4706	0.35502	2.3974	0.60834	-0.84705	-0.40582	1.8668	-21.1593	769.062	-57.822	291.6844	70.1867	836.1143	-0.0592	0.0182	-0.0073	-0.0462	0.0165	0.9585
1.484	0.38852	2.4742	0.715	-0.86867	-0.46174	1.7647	-17.7784	770.8052	-56.4086	292.5882	66.9408	833.3017	-0.0592	0.0182	-0.0073	-0.0462	0.0165	0.9585
1.4974	0.28793	2.3751	0.73177	-0.83055	-0.50849	1.626	-14.1766	773.0098	-55.4084	293.6169	64.054	830.8155	-0.0592	0.0182	-0.0073	-0.0462	0.0165	0.9585
1.5109	0.10084	2.0417	0.70435	-0.70791	-0.56188	1.3316	-10.4641	775.0028	-54.777	294.527	61.5272	828.0285	-0.0592	0.0182	-0.0073	-0.0462	0.0165	0.9585
1.5243	-0.12876	1.3869	0.65548	-0.46861	-0.61863	0.73045	-6.7108	776.1063	-54.445	295.0733	59.3126	824.294	-0.0592	0.0182	-0.0073	-0.0462	0.0165	0.9585
1.5377	-0.35552	0.32484	0.59945	-0.079814	-0.6699	-0.32284	-2.9666	775.7071	-54.2832	295.0351	57.2898	819.0275	-0.0592	0.0182	-0.0073	-0.0462	0.0165	0.9585
1.5511	-0.54333	-1.2077	0.53498	0.48154	-0.69264	-1.9275	0.76195	773.3502	-54.1779	294.245	55.3379	811.801	-0.0592	0.0182	-0.0073	-0.0462	0.0165	0.9585
1.5646	-0.63194	-3.23	0.45811	1.2192	-0.6572	-4.1262	4.4837	768.8508	-54.0248	292.6276	53.344	802.4685	-0.0592	0.0182	-0.0073	-0.0462	0.0165	0.9585
1.578	-0.55067	-5.6331	0.34998	2.0933	-0.51642	-6.8075	8.1875	762.274	-53.801	290.1922	51.2861	791.154	-0.0592	0.0182	-0.0073	-0.0462	0.0165	0.9585
1.5914	-0.19675	-8.1356	0.18512	2.9981	-0.20549	-9.6601	11.8538	753.9415	-53.5311	287.0397	49.1958	778.2457	-0.0592	0.0182	-0.0073	-0.0462	0.0165	0.9585
1.6049	0.55389	-10.1949	-0.063666	3.7307	0.35144	-12.0614	15.4716	744.4147	-53.2921	283.3602	47.1486	764.3689	-0.0592	0.0182	-0.0073	-0.0462	0.0165	0.9585
1.6183	1.8263	-10.8904	-0.41388	3.9526	1.2201	-12.9487	19.0452	734.3567	-53.165	279.3855	45.2226	750.2288	-0.0592	0.0182	-0.0073	-0.0462	0.0165	0.9585
1.6317	3.7345	-8.8742	-0.86983	3.1703	2.444	-10.774	22.5688	724.3194	-53.2243	275.3111	43.4947	736.4221	-0.0592	0.0182	-0.0073	-0.0462	0.0165	0.9585
1.6451	6.3082	-2.3432	-1.4175	0.72751	4.0165	-3.4554	25.9983	714.5046	-53.5006	271.2106	42.0177	723.2101	-0.0592	0.0182	-0.0073	-0.0462	0.0165	0.9585
1.6586	9.4527	10.8796	-1.9934	-4.1619	5.8263	11.5166	29.2009	704.5705	-53.9554	266.965	40.8127	710.3255	-0.0592	0.0182	-0.0073	-0.0462	0.0165	0.9585
1.672	12.8262	33.0828	-2.4826	-12.3174	7.6118	36.8104	31.9556	693.5475	-54.4536	262.2287	39.8476	696.8942	-0.0592	0.0182	-0.0073	-0.0462	0.0165	0.9585
1.6854	15.7339	66.1538	-2.6802	-24.4056	8.8759	74.663	34.0075	679.8891	-54.7765	256.4505	39.0282	681.462	-0.0592	0.0182	-0.0073	-0.0462	0.0165	0.9585
1.6989	17.04	110.7899	-2.2878	-40.6502	8.8486	125.9696	35.095	661.7051	-54.6441	248.9582	38.1973	662.2156	-0.0592	0.0182	-0.0073	-0.0462	0.0165	0.9585
1.7123	15.3583	165.5911	-0.90726	-60.4987	6.564	189.2407	35.037	637.1801	-53.7536	239.1126	37.1421	637.366	-0.0592	0.0182	-0.0073	-0.0462	0.0165	0.9585
1.7257	10.2014	226.7018	1.8916	-82.4904	1.347	260.141	33.8122	605.1848	-51.875	226.5283	35.6553	605.7369	-0.0592	0.0182	-0.0073	-0.0462	0.0165	0.9585
1.7391	2.8825	288.3513	6.6004	-104.4709	-6.8644	331.9722	31.5989	565.8082	-48.9214	211.2702	33.5927	567.2735	-0.0592	0.0182	-0.0073	-0.0462	0.0165	0.9585
1.7526	-5.0043	345.5874	13.119	-124.6376	-17.3269	398.8	28.7388	520.5496	-45.0167	193.9185	30.9497	523.2416	-0.0592	0.0182	-0.0073	-0.0462	0.0165	0.9585
1.766	-12.3874	396.4842	20.5952	-142.3389	-28.6712	458.2098	25.6344	472.0211	-40.4736	175.4509	27.8659	475.9955	-0.0592	0.0182	-0.0073	-0.0462	0.0165	0.9585
1.7794	-18.6448	440.9911	28.2602	-157.6363	-39.7714	510.0995	22.6464	423.0121	-35.7286	156.9064	24.6058	428.0959	-0.0592	0.0182	-0.0073	-0.0462	0.0165	0.9585
1.7929	-23.6059	479.6644	35.2989	-170.83	-49.6448	555.0797	19.9469	375.7986	-31.1231	139.1297	21.4105	381.6967	-0.0592	0.0182	-0.0073	-0.0462	0.0165	0.9585
1.8063	-27.3392	513.0543	41.1505	-182.2059	-57.6743	593.7683	17.5557	331.9542	-26.8814	122.6981	18.4652	338.3531	-0.0592	0.0182	-0.0073	-0.0462	0.0165	0.9585
1.8197	-29.8168	541.7296	45.4476	-192.0309	-63.4502	626.7453	15.4296	292.4841	-23.1173	107.971	15.8759	299.1133	-0.0592	0.0182	-0.0073	-0.0462	0.0165	0.9585
1.8331	-30.9557	566.3799	48.2181	-200.5691	-66.975	654.7528	13.488	257.8993	-19.9043	95.1175	13.7242	264.5543	-0.0592	0.0182	-0.0073	-0.0462	0.0165	0.9585
1.8466	-30.7293	587.5404	49.7441	-207.994	-68.5634	678.3491	11.6643	228.2337	-17.2589	84.1276	12.041	234.764	-0.0592	0.0182	-0.0073	-0.0462	0.0165	0.9585
1.86	-29.3071	605.4251	50.5607	-214.3426	-68.8643	697.7494	9.8772	203.1085	-15.1669	74.8353	10.8423	209.417	-0.0592	0.0182	-0.0073	-0.0462	0.0165	0.9585
1.8734	-27.0048	620.3649	51.1104	-219.693	-68.4839	713.3428	8.0371	181.8016	-13.5681	66.9541	10.1122	187.8202	-0.0592	0.0182	-0.0073	-0.0462	0.0165	0.9585
1.8869	-24.1594	633.1275	51.6335	-224.2967	-67.8197	726.0123	6.0397	163.392	-12.3842	60.1324	9.8211	169.074	-0.0592	0.0182	-0.0073	-0.0462	0.0165	0.9585
1.9003	-21.0994	644.8122	52.2029	-228.535	-67.0804	737.035	3.8424	146.9257	-11.5147	54.0121	9.894	152.2344	-0.0592	0.0182	-0.0073	-0.0462	0.0165	0.9585
1.9137	-18.0598	656.4906	52.8281	-232.7852	-66.3686	747.6519	1.4917	131.5349	-10.849	48.2768	10.2125	136.4169	-0.0592	0.0182	-0.0073	-0.0462	0.0165	0.9585
1.9271	-15.2171	668.9458	53.5394	-237.3127	-65.7808	758.8031	-0.9401	116.5527	-10.2786	42.6877	10.6392	120.9539	-0.0592	0.0182	-0.0073	-0.0462	0.0165	0.9585
1.9406	-12.6882	682.5224	54.3972	-242.2146	-65.4222	770.9487	-3.2966	101.5488	-9.7008	37.0965	11.0118	105.4097	-0.0592	0.0182	-0.0073	-0.0462	0.0165	0.9585
1.954	-10.5167	697.1448	55.4762	-247.4355	-65.3889	784.0889	-5.4045	86.3876	-9.0237	31.4618	11.1676	89.6712	-0.0592	0.0182	-0.0073	-0.0462	0.0165	0.9585
1.9674	-8.6931	712.4469	56.7664	-252.8206	-65.6727	797.9066	-7.0969	71.204	-8.1683	25.8442	10.9623	73.9047	-0.0592	0.0182	-0.0073	-0.0462	0.0165	0.9585
1.9809	-7.1533	727.8433	58.2179	-258.1432	-66.2065	811.8303	-8.2124	56.3571	-7.1062	20.3819	10.3114	58.5055	-0.0592	0.0182	-0.0073	-0.0462	0.0165	0.9585
1.9943	-5.8271	742.5873	59.7044	-263.1317	-66.8386	825.0989	-8.598	42.3509	-5.8525	15.2586	9.1793	44.0178	-0.0592	0.0182	-0.0073	-0.0462	0.0165	0.9585
2.0077	-4.6278	755.8389	61.136	-267.4892	-67.446	836.8271	-8.1336	29.7165	-4.4855	10.6639	7.6125	30.9774	-0.0592	0.0182	-0.0073	-0.0462	0.0165	0.9585
2.0211	-3.4744	766.7094	62.4161	-270.9114	-67.9069	846.0511	-6.8931	19.0034	-3.1179	6.7889	5.7614	19.9341	-0.0592	0.0182	-0.0073	-0.0462	0.0165	0.9585
2.0346	-2.3065	774.3527	63.4945	-273.1204	-68.1486	851.8479	-5.2617	10.6797	-1.9051	3.7916	3.9269	11.3492	-0.0592	0.0182	-0.0073	-0.0462	0.0165	0.9585
2.048	-1.0698	778.1667	64.2759	-273.9361	-68.0554	853.5282	-3.6438	4.818	-0.956	1.6902	2.3628	5.3046	-0.0592	0.0182	-0.0073	-0.0462	0.0165	0.9585
2.0614	0.26166	777.9802	64.7085	-273.3315	-67.5663	850.8683	-2.2695	1.1052	-0.28311	0.36864	1.1636	1.4885	-0.0592	0.0182	-0.0073	-0.0462	0.0165	0.9585
2.0749	1.702	774.1143	64.7491	-271.4517	-66.6373	844.1851	-1.2083	-0.93731	0.13871	-0.34694	0.33204	-0.60517	-0.0592	0.0182	-0.0073	-0.0462	0.0165	0.9585
2.0883	3.2354	767.2908	64.4504	-268.5745	-65.3284	834.2378	-0.48226	-1.7696	0.36509	-0.62633	-0.18176	-1.4459	-0.0592	0.0182	-0.0073	-0.0462	0.0165	0.9585
2.1017	4.823	758.5142	63.8592	-265.0712	-63.7036	822.0759	-0.030919	-1.8356	0.447	-0.62918	-0.44825	-1.5057	-0.0592	0.0182	-0.0073	-0.0462	0.0165	0.9585
2.1151	6.4293	748.9398	63.0489	-261.3581	-61.8481	808.9085	0.18361	-1.4615	0.43895	-0.47612	-0.53874	-1.1086	-0.0592	0.0182	-0.0073	-0.0462	0.0165	0.9585
2.1286	8.06	739.7529	62.0534	-257.8579	-59.7924	795.9561	0.24083	-0.88915	0.37311	-0.25552	-0.50817	-0.51025	-0.0592	0.0182	-0.0073	-0.0462	0.0165	0.9585
2.142	9.7448	732.049	60.9333	-254.9503	-57.5815	784.349	0.20136	-0.29367	0.28206	-0.029619	-0.4061	0.1048	-0.0592	0.0182	-0.0073	-0.0462	0.0165	0.9585
2.1554	11.5491	726.6822	59.7498	-252.9198	-55.2493	774.9656	0.085213	0.21211	0.18292	0.16011	-0.25634	0.62636	-0.0592	0.0182	-0.0073	-0.0462	0.0165	0.9585
2.1689	13.5307	724.2041	58.5933	-251.934	-52.8609	768.3927	-0.053203	0.54466	0.088266	0.28426	-0.087988	0.95061	-0.0592	0.0182	-0.0073	-0.0462	0.0165	0.9585
2.1823	15.7225	724.8687	57.5499	-252.0482	-50.491	764.9291	-0.21266	0.65536	0.00013105	0.32253	0.088752	1.0253	-0.0592	0.0182	-0.0073	-0.0462	0.0165	0.9585
2.1957	18.1187	728.6164	56.7036	-253.2052	-48.2314	764.5683	-0.3708	0.46857	-0.07379	0.24811	0.25427	0.74681	-0.0592	0.0182	-0.0073	-0.0462	0.0165	0.9585
2.2091	20.6604	735.0666	56.1013	-255.2367	-46.1556	766.9927	-0.51424	-0.067991	-0.13398	0.0386	0.39926	0.048737	-0.0592	0.0182	-0.0073	-0.0462	0.0165	0.9585
2.2226	23.2898	743.5173	55.7712	-257.8686	-44.327	771.5528	-0.61609	-1.0056	-0.17577	-0.32763	0.50689	-1.1275	-0.0592	0.0182	-0.0073	-0.0462	0.0165	0.9585
2.236	25.91	753.0074	55.7211	-260.7385	-42.799	777.352	-0.63824	-2.391	-0.19194	-0.86695	0.55277	-2.8388	-0.0592	0.0182	-0.0073	-0.0462	0.0165	0.9585
2.2494	28.4242	762.3847	55.9561	-263.4295	-41.6238	783.2893	-0.54724	-4.1879	-0.17043	-1.5659	0.50398	-5.0389	-0.0592	0.0182	-0.0073	-0.0462	0.0165	0.9585
2.2629	30.7292	770.4447	56.4514	-265.5248	-40.8282	788.204	-0.25695	-6.2512	-0.1031	-2.3674	0.31683	-7.567	-0.0592	0.0182	-0.0073	-0.0462	0.0165	0.9585
2.2763	32.7556	776.0858	57.1538	-266.6548	-40.3984	791.0231	0.29237	-8.2378	0.026687	-3.1402	-0.051676	-10.0063	-0.0592	0.0182	-0.0073	-0.0462	0.0165	0.9585
2.2897	34.537	778.454	58.0157	-266.543	-40.287	790.8664	1.1768	-9.563	0.23089	-3.6581	-0.64322	-11.646	-0.0592	0.0182	-0.0073	-0.0462	0.0165	0.9585
2.3031	36.1511	777.1334	59.0446	-265.0641	-40.4739	787.2732	2.4567	-9.3073	0.5193	-3.5665	-1.4894	-11.3562	-0.0592	0.0182	-0.0073	-0.0462	0.0165	0.9585
2.3166	37.7169	772.2069	60.2766	-262.271	-40.9527	780.2557	4.1289	-6.1791	0.89052	-2.3679	-2.5796	-7.5468	-0.0592	0.0182	-0.0073	-0.0462	0.0165	0.9585
2.33	39.3143	764.1502	61.6968	-258.3613	-41.6802	770.2413	6.1059	1.4459	1.3322	0.56761	-3.8499	1.7808	-0.0592	0.0182	-0.0073	-0.0462	0.0165	0.9585
2.3434	41.0383	753.5821	63.1891	-253.5903	-42.5121	757.7907	8.1275	15.4449	1.7953	5.9637	-5.1284	18.9435	-0.0592	0.0182	-0.0073	-0.0462	0.0165	0.9585
2.3569	42.9916	741.0022	64.5876	-248.1737	-43.2452	743.3433	9.7182	37.6213	2.1913	14.5173	-6.1041	46.1606	-0.0592	0.0182	-0.0073	-0.0462	0.0165	0.9585
2.3703	45.2038	726.5458	65.6987	-242.1991	-43.668	727.0119	10.0763	69.1761	2.3665	26.6942	-6.2684	84.9288	-0.0592	0.0182	-0.0073	-0.0462	0.0165	0.9585
2.3837	47.6167	709.8416	66.2855	-235.5856	-43.5617	708.4392	8.0825	109.9272	2.0861	42.428	-4.906	135.0538	-0.0592	0.0182	-0.0073	-0.0462	0.0165	0.9585
2.3971	50.0156	690.1128	66.069	-228.1192	-42.7239	686.9475	2.7053	157.5443	1.0645	60.8184	-1.2816	193.7059	-0.0592	0.0182	-0.0073	-0.0462	0.0165	0.9585
2.4106	52.1026	666.3937	64.7931	-219.5226	-41.0146	661.6926	-5.89	207.36	-1.1202	80.0478	5.024	255.1555	-0.0592	0.0182	-0.0073	-0.0462	0.0165	0.9585
2.424	53.5489	637.8526	62.3389	-209.5503	-38.4377	631.9613	-15.875	254.0005	-4.7244	98.0273	13.5253	312.6609	-0.0592	0.0182	-0.0073	-0.0462	0.0165	0.9585
